<mxfile host="65bd71144e">
    <diagram id="4FCNb8YeMRKc-BQFER56" name="Page-1">
        <mxGraphModel dx="1416" dy="3563" grid="1" gridSize="10" guides="1" tooltips="1" connect="1" arrows="1" fold="1" page="1" pageScale="1" pageWidth="850" pageHeight="1100" math="0" shadow="0">
            <root>
                <mxCell id="0"/>
                <mxCell id="1" parent="0"/>
                <mxCell id="IPaBNMBHqaToawMMxi63-1" value="User" style="rounded=0;whiteSpace=wrap;html=1;" parent="1" vertex="1">
                    <mxGeometry x="42.5" y="-276.81" width="290" height="120" as="geometry"/>
                </mxCell>
                <mxCell id="IPaBNMBHqaToawMMxi63-6" value="Id" style="ellipse;shape=doubleEllipse;margin=3;whiteSpace=wrap;html=1;align=center;" parent="1" vertex="1">
                    <mxGeometry x="52.5" y="-346.81" width="40" height="40" as="geometry"/>
                </mxCell>
                <mxCell id="IPaBNMBHqaToawMMxi63-7" value="mail" style="ellipse;whiteSpace=wrap;html=1;align=center;" parent="1" vertex="1">
                    <mxGeometry x="102.5" y="-346.81" width="40" height="40" as="geometry"/>
                </mxCell>
                <mxCell id="IPaBNMBHqaToawMMxi63-8" value="phone" style="ellipse;whiteSpace=wrap;html=1;align=center;" parent="1" vertex="1">
                    <mxGeometry x="267.5" y="-346.81" width="40" height="40" as="geometry"/>
                </mxCell>
                <mxCell id="IPaBNMBHqaToawMMxi63-9" value="pwd" style="ellipse;whiteSpace=wrap;html=1;align=center;" parent="1" vertex="1">
                    <mxGeometry x="207.5" y="-346.81" width="40" height="40" as="geometry"/>
                </mxCell>
                <mxCell id="IPaBNMBHqaToawMMxi63-10" value="" style="endArrow=none;html=1;rounded=0;entryX=0.5;entryY=1;entryDx=0;entryDy=0;exitX=0.102;exitY=0.002;exitDx=0;exitDy=0;exitPerimeter=0;" parent="1" source="IPaBNMBHqaToawMMxi63-1" target="IPaBNMBHqaToawMMxi63-6" edge="1">
                    <mxGeometry relative="1" as="geometry">
                        <mxPoint x="22.5" y="-256.81" as="sourcePoint"/>
                        <mxPoint x="182.5" y="-256.81" as="targetPoint"/>
                    </mxGeometry>
                </mxCell>
                <mxCell id="IPaBNMBHqaToawMMxi63-11" value="" style="endArrow=none;html=1;rounded=0;entryX=0.5;entryY=1;entryDx=0;entryDy=0;exitX=0.276;exitY=0;exitDx=0;exitDy=0;exitPerimeter=0;" parent="1" source="IPaBNMBHqaToawMMxi63-1" target="IPaBNMBHqaToawMMxi63-7" edge="1">
                    <mxGeometry relative="1" as="geometry">
                        <mxPoint x="122.5" y="-296.81" as="sourcePoint"/>
                        <mxPoint x="122.71000000000001" y="-347.04999999999995" as="targetPoint"/>
                    </mxGeometry>
                </mxCell>
                <mxCell id="IPaBNMBHqaToawMMxi63-12" value="" style="endArrow=none;html=1;rounded=0;entryX=0.5;entryY=1;entryDx=0;entryDy=0;exitX=0.847;exitY=0;exitDx=0;exitDy=0;exitPerimeter=0;" parent="1" source="IPaBNMBHqaToawMMxi63-1" target="IPaBNMBHqaToawMMxi63-8" edge="1">
                    <mxGeometry relative="1" as="geometry">
                        <mxPoint x="172.45999999999998" y="-296.81" as="sourcePoint"/>
                        <mxPoint x="172.42000000000002" y="-346.80999999999995" as="targetPoint"/>
                    </mxGeometry>
                </mxCell>
                <mxCell id="IPaBNMBHqaToawMMxi63-14" value="" style="endArrow=none;html=1;rounded=0;entryX=0.5;entryY=1;entryDx=0;entryDy=0;exitX=0.637;exitY=0.007;exitDx=0;exitDy=0;exitPerimeter=0;" parent="1" source="IPaBNMBHqaToawMMxi63-1" target="IPaBNMBHqaToawMMxi63-9" edge="1">
                    <mxGeometry relative="1" as="geometry">
                        <mxPoint x="222.5" y="-296.81" as="sourcePoint"/>
                        <mxPoint x="222.68999999999988" y="-346.81" as="targetPoint"/>
                    </mxGeometry>
                </mxCell>
                <mxCell id="IPaBNMBHqaToawMMxi63-16" value="Log" style="rounded=0;whiteSpace=wrap;html=1;" parent="1" vertex="1">
                    <mxGeometry x="30" y="-800" width="290" height="120" as="geometry"/>
                </mxCell>
                <mxCell id="IPaBNMBHqaToawMMxi63-17" value="Id" style="ellipse;shape=doubleEllipse;margin=3;whiteSpace=wrap;html=1;align=center;" parent="1" vertex="1">
                    <mxGeometry x="40" y="-890" width="40" height="40" as="geometry"/>
                </mxCell>
                <mxCell id="IPaBNMBHqaToawMMxi63-18" value="hours" style="ellipse;whiteSpace=wrap;html=1;align=center;" parent="1" vertex="1">
                    <mxGeometry x="90" y="-890" width="40" height="40" as="geometry"/>
                </mxCell>
                <mxCell id="IPaBNMBHqaToawMMxi63-19" value="avg sea" style="ellipse;whiteSpace=wrap;html=1;align=center;" parent="1" vertex="1">
                    <mxGeometry x="140" y="-890" width="40" height="40" as="geometry"/>
                </mxCell>
                <mxCell id="IPaBNMBHqaToawMMxi63-21" value="" style="endArrow=none;html=1;rounded=0;entryX=0.5;entryY=1;entryDx=0;entryDy=0;exitX=0.102;exitY=0.002;exitDx=0;exitDy=0;exitPerimeter=0;" parent="1" source="IPaBNMBHqaToawMMxi63-16" target="IPaBNMBHqaToawMMxi63-17" edge="1">
                    <mxGeometry relative="1" as="geometry">
                        <mxPoint x="10" y="-760" as="sourcePoint"/>
                        <mxPoint x="170" y="-760" as="targetPoint"/>
                    </mxGeometry>
                </mxCell>
                <mxCell id="IPaBNMBHqaToawMMxi63-22" value="" style="endArrow=none;html=1;rounded=0;entryX=0.5;entryY=1;entryDx=0;entryDy=0;exitX=0.276;exitY=0;exitDx=0;exitDy=0;exitPerimeter=0;" parent="1" source="IPaBNMBHqaToawMMxi63-16" target="IPaBNMBHqaToawMMxi63-18" edge="1">
                    <mxGeometry relative="1" as="geometry">
                        <mxPoint x="110" y="-800" as="sourcePoint"/>
                        <mxPoint x="110.21000000000004" y="-850.24" as="targetPoint"/>
                    </mxGeometry>
                </mxCell>
                <mxCell id="IPaBNMBHqaToawMMxi63-23" value="" style="endArrow=none;html=1;rounded=0;entryX=0.5;entryY=1;entryDx=0;entryDy=0;exitX=0.447;exitY=0.004;exitDx=0;exitDy=0;exitPerimeter=0;" parent="1" source="IPaBNMBHqaToawMMxi63-16" target="IPaBNMBHqaToawMMxi63-19" edge="1">
                    <mxGeometry relative="1" as="geometry">
                        <mxPoint x="159.96000000000004" y="-800" as="sourcePoint"/>
                        <mxPoint x="159.92000000000007" y="-850" as="targetPoint"/>
                    </mxGeometry>
                </mxCell>
                <mxCell id="IPaBNMBHqaToawMMxi63-25" value="has_log" style="shape=rhombus;perimeter=rhombusPerimeter;whiteSpace=wrap;html=1;align=center;" parent="1" vertex="1">
                    <mxGeometry x="115" y="-510" width="120" height="60" as="geometry"/>
                </mxCell>
                <mxCell id="IPaBNMBHqaToawMMxi63-26" value="" style="endArrow=none;html=1;rounded=0;entryX=0.5;entryY=1;entryDx=0;entryDy=0;exitX=0.448;exitY=0;exitDx=0;exitDy=0;exitPerimeter=0;" parent="1" source="IPaBNMBHqaToawMMxi63-1" target="IPaBNMBHqaToawMMxi63-25" edge="1">
                    <mxGeometry relative="1" as="geometry">
                        <mxPoint x="217.5" y="-586.81" as="sourcePoint"/>
                        <mxPoint x="377.5" y="-586.81" as="targetPoint"/>
                    </mxGeometry>
                </mxCell>
                <mxCell id="IPaBNMBHqaToawMMxi63-62" value="n" style="edgeLabel;html=1;align=center;verticalAlign=middle;resizable=0;points=[];fontColor=#000000;" parent="IPaBNMBHqaToawMMxi63-26" vertex="1" connectable="0">
                    <mxGeometry x="0.9402" relative="1" as="geometry">
                        <mxPoint as="offset"/>
                    </mxGeometry>
                </mxCell>
                <mxCell id="IPaBNMBHqaToawMMxi63-63" value="0" style="edgeLabel;html=1;align=center;verticalAlign=middle;resizable=0;points=[];fontColor=#000000;" parent="IPaBNMBHqaToawMMxi63-26" vertex="1" connectable="0">
                    <mxGeometry x="-0.8102" y="1" relative="1" as="geometry">
                        <mxPoint as="offset"/>
                    </mxGeometry>
                </mxCell>
                <mxCell id="IPaBNMBHqaToawMMxi63-29" value="" style="endArrow=none;html=1;rounded=0;" parent="1" source="IPaBNMBHqaToawMMxi63-25" target="IPaBNMBHqaToawMMxi63-16" edge="1">
                    <mxGeometry relative="1" as="geometry">
                        <mxPoint x="189.99999999999997" y="-360" as="sourcePoint"/>
                        <mxPoint x="190.08" y="-670" as="targetPoint"/>
                    </mxGeometry>
                </mxCell>
                <mxCell id="IPaBNMBHqaToawMMxi63-60" value="1" style="edgeLabel;html=1;align=center;verticalAlign=middle;resizable=0;points=[];fontColor=#000000;" parent="IPaBNMBHqaToawMMxi63-29" vertex="1" connectable="0">
                    <mxGeometry x="0.7617" relative="1" as="geometry">
                        <mxPoint as="offset"/>
                    </mxGeometry>
                </mxCell>
                <mxCell id="IPaBNMBHqaToawMMxi63-61" value="n" style="edgeLabel;html=1;align=center;verticalAlign=middle;resizable=0;points=[];fontColor=#000000;" parent="IPaBNMBHqaToawMMxi63-29" vertex="1" connectable="0">
                    <mxGeometry x="-0.7487" y="1" relative="1" as="geometry">
                        <mxPoint as="offset"/>
                    </mxGeometry>
                </mxCell>
                <mxCell id="IPaBNMBHqaToawMMxi63-32" value="" style="ellipse;whiteSpace=wrap;html=1;align=center;fontStyle=4;fillColor=#000000;" parent="1" vertex="1">
                    <mxGeometry x="195" y="-530" width="10" height="10" as="geometry"/>
                </mxCell>
                <mxCell id="IPaBNMBHqaToawMMxi63-36" value="" style="endArrow=none;html=1;rounded=0;fontColor=#000000;entryX=0;entryY=0.5;entryDx=0;entryDy=0;exitX=0;exitY=0;exitDx=0;exitDy=0;" parent="1" source="IPaBNMBHqaToawMMxi63-25" target="IPaBNMBHqaToawMMxi63-32" edge="1">
                    <mxGeometry relative="1" as="geometry">
                        <mxPoint x="135" y="-550" as="sourcePoint"/>
                        <mxPoint x="295" y="-550" as="targetPoint"/>
                        <Array as="points">
                            <mxPoint x="145" y="-525"/>
                        </Array>
                    </mxGeometry>
                </mxCell>
                <mxCell id="IPaBNMBHqaToawMMxi63-69" style="edgeStyle=orthogonalEdgeStyle;rounded=0;orthogonalLoop=1;jettySize=auto;html=1;exitX=0;exitY=0;exitDx=0;exitDy=0;fontColor=#000000;endArrow=oval;endFill=1;" parent="1" source="IPaBNMBHqaToawMMxi63-37" edge="1">
                    <mxGeometry relative="1" as="geometry">
                        <mxPoint x="395" y="-530" as="targetPoint"/>
                    </mxGeometry>
                </mxCell>
                <mxCell id="IPaBNMBHqaToawMMxi63-37" value="user_endorses_log" style="shape=rhombus;perimeter=rhombusPerimeter;whiteSpace=wrap;html=1;align=center;" parent="1" vertex="1">
                    <mxGeometry x="305" y="-510" width="120" height="60" as="geometry"/>
                </mxCell>
                <mxCell id="IPaBNMBHqaToawMMxi63-38" value="" style="endArrow=none;html=1;rounded=0;entryX=1.001;entryY=0.67;entryDx=0;entryDy=0;entryPerimeter=0;exitX=0.5;exitY=0;exitDx=0;exitDy=0;" parent="1" source="IPaBNMBHqaToawMMxi63-37" target="IPaBNMBHqaToawMMxi63-16" edge="1">
                    <mxGeometry relative="1" as="geometry">
                        <mxPoint x="185" y="-500" as="sourcePoint"/>
                        <mxPoint x="185" y="-670" as="targetPoint"/>
                        <Array as="points">
                            <mxPoint x="365" y="-720"/>
                        </Array>
                    </mxGeometry>
                </mxCell>
                <mxCell id="IPaBNMBHqaToawMMxi63-58" value="n" style="edgeLabel;html=1;align=center;verticalAlign=middle;resizable=0;points=[];fontColor=#000000;" parent="IPaBNMBHqaToawMMxi63-38" vertex="1" connectable="0">
                    <mxGeometry x="-0.9074" y="1" relative="1" as="geometry">
                        <mxPoint as="offset"/>
                    </mxGeometry>
                </mxCell>
                <mxCell id="IPaBNMBHqaToawMMxi63-59" value="n" style="edgeLabel;html=1;align=center;verticalAlign=middle;resizable=0;points=[];fontColor=#000000;" parent="IPaBNMBHqaToawMMxi63-38" vertex="1" connectable="0">
                    <mxGeometry x="0.9435" y="-2" relative="1" as="geometry">
                        <mxPoint as="offset"/>
                    </mxGeometry>
                </mxCell>
                <mxCell id="IPaBNMBHqaToawMMxi63-41" value="" style="endArrow=none;html=1;rounded=0;entryX=0.5;entryY=1;entryDx=0;entryDy=0;exitX=1;exitY=0.5;exitDx=0;exitDy=0;" parent="1" source="IPaBNMBHqaToawMMxi63-1" target="IPaBNMBHqaToawMMxi63-37" edge="1">
                    <mxGeometry relative="1" as="geometry">
                        <mxPoint x="392.21" y="-356.8099999999998" as="sourcePoint"/>
                        <mxPoint x="347.49999999999994" y="-566.4099999999999" as="targetPoint"/>
                        <Array as="points">
                            <mxPoint x="365.5" y="-216.81"/>
                            <mxPoint x="365.5" y="-426.81"/>
                        </Array>
                    </mxGeometry>
                </mxCell>
                <mxCell id="IPaBNMBHqaToawMMxi63-49" value="" style="resizable=0;html=1;align=right;verticalAlign=bottom;" parent="IPaBNMBHqaToawMMxi63-41" connectable="0" vertex="1">
                    <mxGeometry x="1" relative="1" as="geometry">
                        <mxPoint x="-10" y="360" as="offset"/>
                    </mxGeometry>
                </mxCell>
                <mxCell id="IPaBNMBHqaToawMMxi63-57" value="n" style="edgeLabel;html=1;align=center;verticalAlign=middle;resizable=0;points=[];fontColor=#000000;" parent="IPaBNMBHqaToawMMxi63-41" vertex="1" connectable="0">
                    <mxGeometry x="0.938" y="1" relative="1" as="geometry">
                        <mxPoint as="offset"/>
                    </mxGeometry>
                </mxCell>
                <mxCell id="IPaBNMBHqaToawMMxi63-64" value="0" style="edgeLabel;html=1;align=center;verticalAlign=middle;resizable=0;points=[];fontColor=#000000;" parent="IPaBNMBHqaToawMMxi63-41" vertex="1" connectable="0">
                    <mxGeometry x="-0.5508" y="-2" relative="1" as="geometry">
                        <mxPoint as="offset"/>
                    </mxGeometry>
                </mxCell>
                <mxCell id="IPaBNMBHqaToawMMxi63-44" value="Company" style="rounded=0;whiteSpace=wrap;html=1;" parent="1" vertex="1">
                    <mxGeometry x="959.94" y="190" width="290" height="120" as="geometry"/>
                </mxCell>
                <mxCell id="IPaBNMBHqaToawMMxi63-46" value="1-n" style="rounded=0;orthogonalLoop=1;jettySize=auto;html=1;fontColor=#000000;exitX=0;exitY=0.5;exitDx=0;exitDy=0;edgeStyle=orthogonalEdgeStyle;endArrow=none;endFill=0;entryX=0.5;entryY=1;entryDx=0;entryDy=0;jumpStyle=sharp;" parent="1" source="IPaBNMBHqaToawMMxi63-45" target="IPaBNMBHqaToawMMxi63-102" edge="1">
                    <mxGeometry x="0.7999" relative="1" as="geometry">
                        <mxPoint x="660" y="235" as="sourcePoint"/>
                        <mxPoint x="470" y="160" as="targetPoint"/>
                        <Array as="points">
                            <mxPoint x="325" y="250"/>
                        </Array>
                        <mxPoint as="offset"/>
                    </mxGeometry>
                </mxCell>
                <mxCell id="IPaBNMBHqaToawMMxi63-48" style="edgeStyle=orthogonalEdgeStyle;rounded=0;orthogonalLoop=1;jettySize=auto;html=1;fontColor=#000000;endArrow=none;endFill=0;entryX=0;entryY=0.5;entryDx=0;entryDy=0;" parent="1" source="IPaBNMBHqaToawMMxi63-45" target="IPaBNMBHqaToawMMxi63-44" edge="1">
                    <mxGeometry relative="1" as="geometry">
                        <mxPoint x="1149.94" y="310" as="targetPoint"/>
                    </mxGeometry>
                </mxCell>
                <mxCell id="IPaBNMBHqaToawMMxi63-54" value="n" style="edgeLabel;html=1;align=center;verticalAlign=middle;resizable=0;points=[];fontColor=#000000;" parent="IPaBNMBHqaToawMMxi63-48" vertex="1" connectable="0">
                    <mxGeometry x="-0.77" relative="1" as="geometry">
                        <mxPoint as="offset"/>
                    </mxGeometry>
                </mxCell>
                <mxCell id="IPaBNMBHqaToawMMxi63-131" value="1-n" style="edgeLabel;html=1;align=center;verticalAlign=middle;resizable=0;points=[];fontColor=#000000;" parent="IPaBNMBHqaToawMMxi63-48" vertex="1" connectable="0">
                    <mxGeometry x="-0.7087" relative="1" as="geometry">
                        <mxPoint as="offset"/>
                    </mxGeometry>
                </mxCell>
                <mxCell id="IPaBNMBHqaToawMMxi63-70" style="edgeStyle=orthogonalEdgeStyle;rounded=0;orthogonalLoop=1;jettySize=auto;html=1;fontColor=#000000;endArrow=oval;endFill=1;" parent="1" edge="1">
                    <mxGeometry relative="1" as="geometry">
                        <mxPoint x="790" y="270" as="targetPoint"/>
                        <mxPoint x="745" y="228" as="sourcePoint"/>
                        <Array as="points">
                            <mxPoint x="745" y="228"/>
                            <mxPoint x="745" y="220"/>
                            <mxPoint x="880" y="220"/>
                        </Array>
                    </mxGeometry>
                </mxCell>
                <mxCell id="IPaBNMBHqaToawMMxi63-45" value="lead_company" style="shape=rhombus;perimeter=rhombusPerimeter;whiteSpace=wrap;html=1;align=center;" parent="1" vertex="1">
                    <mxGeometry x="660.0000000000001" y="205" width="120" height="90" as="geometry"/>
                </mxCell>
                <mxCell id="IPaBNMBHqaToawMMxi63-66" style="edgeStyle=orthogonalEdgeStyle;rounded=0;orthogonalLoop=1;jettySize=auto;html=1;fontColor=#000000;endArrow=none;endFill=0;exitX=0.5;exitY=1;exitDx=0;exitDy=0;entryX=0.5;entryY=0;entryDx=0;entryDy=0;" parent="1" source="IPaBNMBHqaToawMMxi63-65" target="IPaBNMBHqaToawMMxi63-44" edge="1">
                    <mxGeometry relative="1" as="geometry">
                        <Array as="points">
                            <mxPoint x="1104.94" y="10"/>
                            <mxPoint x="1104.94" y="190"/>
                        </Array>
                    </mxGeometry>
                </mxCell>
                <mxCell id="IPaBNMBHqaToawMMxi63-71" value="1-n" style="edgeLabel;html=1;align=center;verticalAlign=middle;resizable=0;points=[];fontColor=#000000;" parent="IPaBNMBHqaToawMMxi63-66" vertex="1" connectable="0">
                    <mxGeometry x="-0.7807" relative="1" as="geometry">
                        <mxPoint as="offset"/>
                    </mxGeometry>
                </mxCell>
                <mxCell id="IPaBNMBHqaToawMMxi63-75" style="edgeStyle=orthogonalEdgeStyle;rounded=0;orthogonalLoop=1;jettySize=auto;html=1;exitX=1;exitY=1;exitDx=0;exitDy=0;fontColor=#000000;endArrow=oval;endFill=1;" parent="1" source="IPaBNMBHqaToawMMxi63-65" edge="1">
                    <mxGeometry relative="1" as="geometry">
                        <mxPoint x="1049.94" y="50" as="targetPoint"/>
                        <Array as="points">
                            <mxPoint x="1140.94" y="50"/>
                            <mxPoint x="1049.94" y="50"/>
                        </Array>
                    </mxGeometry>
                </mxCell>
                <mxCell id="IPaBNMBHqaToawMMxi63-65" value="company_has_trip" style="shape=rhombus;perimeter=rhombusPerimeter;whiteSpace=wrap;html=1;align=center;" parent="1" vertex="1">
                    <mxGeometry x="1032.44" y="-90" width="145" height="100" as="geometry"/>
                </mxCell>
                <mxCell id="IPaBNMBHqaToawMMxi63-68" style="edgeStyle=orthogonalEdgeStyle;rounded=0;orthogonalLoop=1;jettySize=auto;html=1;fontColor=#000000;endArrow=none;endFill=0;" parent="1" source="IPaBNMBHqaToawMMxi63-67" target="IPaBNMBHqaToawMMxi63-65" edge="1">
                    <mxGeometry relative="1" as="geometry"/>
                </mxCell>
                <mxCell id="IPaBNMBHqaToawMMxi63-73" value="1-1" style="edgeLabel;html=1;align=center;verticalAlign=middle;resizable=0;points=[];fontColor=#000000;" parent="IPaBNMBHqaToawMMxi63-68" vertex="1" connectable="0">
                    <mxGeometry x="-0.6814" relative="1" as="geometry">
                        <mxPoint as="offset"/>
                    </mxGeometry>
                </mxCell>
                <mxCell id="IPaBNMBHqaToawMMxi63-67" value="Trip" style="rounded=0;whiteSpace=wrap;html=1;" parent="1" vertex="1">
                    <mxGeometry x="959.94" y="-260" width="290" height="120" as="geometry"/>
                </mxCell>
                <mxCell id="CpeaB846haHFIQsKbPVB-20" style="edgeStyle=orthogonalEdgeStyle;rounded=0;orthogonalLoop=1;jettySize=auto;html=1;endArrow=oval;endFill=1;" parent="1" source="IPaBNMBHqaToawMMxi63-76" edge="1">
                    <mxGeometry relative="1" as="geometry">
                        <mxPoint x="850" y="-630" as="targetPoint"/>
                    </mxGeometry>
                </mxCell>
                <mxCell id="IPaBNMBHqaToawMMxi63-76" value="Inventory" style="rounded=0;whiteSpace=wrap;html=1;" parent="1" vertex="1">
                    <mxGeometry x="669.94" y="-770" width="290" height="120" as="geometry"/>
                </mxCell>
                <mxCell id="IPaBNMBHqaToawMMxi63-78" value="Itinerary" style="rounded=0;whiteSpace=wrap;html=1;" parent="1" vertex="1">
                    <mxGeometry x="1067.5" y="-770" width="290" height="120" as="geometry"/>
                </mxCell>
                <mxCell id="IPaBNMBHqaToawMMxi63-84" style="edgeStyle=orthogonalEdgeStyle;rounded=0;orthogonalLoop=1;jettySize=auto;html=1;entryX=0;entryY=0.5;entryDx=0;entryDy=0;fontColor=#000000;endArrow=none;endFill=0;exitX=0.5;exitY=1;exitDx=0;exitDy=0;" parent="1" source="IPaBNMBHqaToawMMxi63-79" target="IPaBNMBHqaToawMMxi63-67" edge="1">
                    <mxGeometry relative="1" as="geometry"/>
                </mxCell>
                <mxCell id="IPaBNMBHqaToawMMxi63-120" value="0-n" style="edgeLabel;html=1;align=center;verticalAlign=middle;resizable=0;points=[];fontColor=#000000;" parent="IPaBNMBHqaToawMMxi63-84" vertex="1" connectable="0">
                    <mxGeometry x="-0.8278" y="4" relative="1" as="geometry">
                        <mxPoint as="offset"/>
                    </mxGeometry>
                </mxCell>
                <mxCell id="IPaBNMBHqaToawMMxi63-85" style="edgeStyle=orthogonalEdgeStyle;rounded=0;orthogonalLoop=1;jettySize=auto;html=1;entryX=0.561;entryY=1;entryDx=0;entryDy=0;entryPerimeter=0;fontColor=#000000;endArrow=none;endFill=0;" parent="1" source="IPaBNMBHqaToawMMxi63-79" target="IPaBNMBHqaToawMMxi63-76" edge="1">
                    <mxGeometry relative="1" as="geometry"/>
                </mxCell>
                <mxCell id="IPaBNMBHqaToawMMxi63-121" value="(1-1)" style="edgeLabel;html=1;align=center;verticalAlign=middle;resizable=0;points=[];fontColor=#000000;" parent="IPaBNMBHqaToawMMxi63-85" vertex="1" connectable="0">
                    <mxGeometry x="-0.1218" y="4" relative="1" as="geometry">
                        <mxPoint as="offset"/>
                    </mxGeometry>
                </mxCell>
                <mxCell id="IPaBNMBHqaToawMMxi63-191" style="edgeStyle=orthogonalEdgeStyle;rounded=0;orthogonalLoop=1;jettySize=auto;html=1;exitX=0;exitY=0;exitDx=0;exitDy=0;fontColor=#000000;endArrow=oval;endFill=1;" parent="1" source="IPaBNMBHqaToawMMxi63-79" edge="1">
                    <mxGeometry relative="1" as="geometry">
                        <mxPoint x="850" y="-543" as="targetPoint"/>
                    </mxGeometry>
                </mxCell>
                <mxCell id="IPaBNMBHqaToawMMxi63-79" value="trip_has_inventory" style="shape=rhombus;perimeter=rhombusPerimeter;whiteSpace=wrap;html=1;align=center;" parent="1" vertex="1">
                    <mxGeometry x="760" y="-523.19" width="145" height="100" as="geometry"/>
                </mxCell>
                <mxCell id="IPaBNMBHqaToawMMxi63-82" style="edgeStyle=orthogonalEdgeStyle;rounded=0;orthogonalLoop=1;jettySize=auto;html=1;fontColor=#000000;endArrow=none;endFill=0;" parent="1" source="IPaBNMBHqaToawMMxi63-81" target="IPaBNMBHqaToawMMxi63-78" edge="1">
                    <mxGeometry relative="1" as="geometry"/>
                </mxCell>
                <mxCell id="IPaBNMBHqaToawMMxi63-122" value="(1-1)" style="edgeLabel;html=1;align=center;verticalAlign=middle;resizable=0;points=[];fontColor=#000000;" parent="IPaBNMBHqaToawMMxi63-82" vertex="1" connectable="0">
                    <mxGeometry x="-0.2338" y="3" relative="1" as="geometry">
                        <mxPoint as="offset"/>
                    </mxGeometry>
                </mxCell>
                <mxCell id="IPaBNMBHqaToawMMxi63-83" style="edgeStyle=orthogonalEdgeStyle;rounded=0;orthogonalLoop=1;jettySize=auto;html=1;entryX=0.871;entryY=0;entryDx=0;entryDy=0;entryPerimeter=0;fontColor=#000000;endArrow=none;endFill=0;" parent="1" source="IPaBNMBHqaToawMMxi63-81" target="IPaBNMBHqaToawMMxi63-67" edge="1">
                    <mxGeometry relative="1" as="geometry"/>
                </mxCell>
                <mxCell id="IPaBNMBHqaToawMMxi63-123" value="1-1" style="edgeLabel;html=1;align=center;verticalAlign=middle;resizable=0;points=[];fontColor=#000000;" parent="IPaBNMBHqaToawMMxi63-83" vertex="1" connectable="0">
                    <mxGeometry x="-0.1366" y="3" relative="1" as="geometry">
                        <mxPoint as="offset"/>
                    </mxGeometry>
                </mxCell>
                <mxCell id="IPaBNMBHqaToawMMxi63-192" style="edgeStyle=orthogonalEdgeStyle;rounded=0;orthogonalLoop=1;jettySize=auto;html=1;exitX=0;exitY=0;exitDx=0;exitDy=0;fontColor=#000000;endArrow=oval;endFill=1;" parent="1" source="IPaBNMBHqaToawMMxi63-81" edge="1">
                    <mxGeometry relative="1" as="geometry">
                        <mxPoint x="1230" y="-550" as="targetPoint"/>
                    </mxGeometry>
                </mxCell>
                <mxCell id="IPaBNMBHqaToawMMxi63-81" value="trip_has_itinerary" style="shape=rhombus;perimeter=rhombusPerimeter;whiteSpace=wrap;html=1;align=center;" parent="1" vertex="1">
                    <mxGeometry x="1140" y="-530" width="145" height="100" as="geometry"/>
                </mxCell>
                <mxCell id="IPaBNMBHqaToawMMxi63-95" style="edgeStyle=orthogonalEdgeStyle;rounded=0;orthogonalLoop=1;jettySize=auto;html=1;entryX=0.25;entryY=0;entryDx=0;entryDy=0;fontColor=#000000;endArrow=none;endFill=0;exitX=1;exitY=0.5;exitDx=0;exitDy=0;" parent="1" source="IPaBNMBHqaToawMMxi63-93" target="IPaBNMBHqaToawMMxi63-44" edge="1">
                    <mxGeometry relative="1" as="geometry">
                        <Array as="points">
                            <mxPoint x="1032" y="20"/>
                        </Array>
                    </mxGeometry>
                </mxCell>
                <mxCell id="IPaBNMBHqaToawMMxi63-132" value="1-n" style="edgeLabel;html=1;align=center;verticalAlign=middle;resizable=0;points=[];fontColor=#000000;" parent="IPaBNMBHqaToawMMxi63-95" vertex="1" connectable="0">
                    <mxGeometry x="-0.5627" y="1" relative="1" as="geometry">
                        <mxPoint as="offset"/>
                    </mxGeometry>
                </mxCell>
                <mxCell id="IPaBNMBHqaToawMMxi63-96" style="edgeStyle=orthogonalEdgeStyle;rounded=0;orthogonalLoop=1;jettySize=auto;html=1;fontColor=#000000;endArrow=none;endFill=0;entryX=1;entryY=0.75;entryDx=0;entryDy=0;exitX=0.5;exitY=0;exitDx=0;exitDy=0;" parent="1" source="IPaBNMBHqaToawMMxi63-93" target="IPaBNMBHqaToawMMxi63-1" edge="1">
                    <mxGeometry relative="1" as="geometry">
                        <mxPoint x="980" y="772.3167509191177" as="targetPoint"/>
                        <Array as="points">
                            <mxPoint x="610" y="-187"/>
                        </Array>
                    </mxGeometry>
                </mxCell>
                <mxCell id="IPaBNMBHqaToawMMxi63-104" value="0-n" style="edgeLabel;html=1;align=center;verticalAlign=middle;resizable=0;points=[];fontColor=#000000;" parent="IPaBNMBHqaToawMMxi63-96" vertex="1" connectable="0">
                    <mxGeometry x="0.8875" y="-1" relative="1" as="geometry">
                        <mxPoint y="-1" as="offset"/>
                    </mxGeometry>
                </mxCell>
                <mxCell id="IPaBNMBHqaToawMMxi63-114" value="-" style="edgeLabel;html=1;align=center;verticalAlign=middle;resizable=0;points=[];fontColor=#000000;" parent="IPaBNMBHqaToawMMxi63-96" vertex="1" connectable="0">
                    <mxGeometry x="-0.9486" relative="1" as="geometry">
                        <mxPoint as="offset"/>
                    </mxGeometry>
                </mxCell>
                <mxCell id="IPaBNMBHqaToawMMxi63-93" value="user_belongs_to_company" style="shape=rhombus;perimeter=rhombusPerimeter;whiteSpace=wrap;html=1;align=center;" parent="1" vertex="1">
                    <mxGeometry x="530" y="-50" width="160" height="140" as="geometry"/>
                </mxCell>
                <mxCell id="IPaBNMBHqaToawMMxi63-117" style="edgeStyle=orthogonalEdgeStyle;rounded=0;orthogonalLoop=1;jettySize=auto;html=1;fontColor=#000000;endArrow=oval;endFill=1;exitX=0.75;exitY=1;exitDx=0;exitDy=0;" parent="1" source="IPaBNMBHqaToawMMxi63-102" edge="1">
                    <mxGeometry relative="1" as="geometry">
                        <mxPoint x="398" y="270" as="targetPoint"/>
                        <Array as="points">
                            <mxPoint x="398" y="270"/>
                        </Array>
                    </mxGeometry>
                </mxCell>
                <mxCell id="IPaBNMBHqaToawMMxi63-102" value="Leader" style="rounded=0;whiteSpace=wrap;html=1;" parent="1" vertex="1">
                    <mxGeometry x="180" y="100" width="290" height="120" as="geometry"/>
                </mxCell>
                <mxCell id="IPaBNMBHqaToawMMxi63-110" style="edgeStyle=orthogonalEdgeStyle;rounded=0;orthogonalLoop=1;jettySize=auto;html=1;exitX=0.5;exitY=0;exitDx=0;exitDy=0;fontColor=#000000;endArrow=none;endFill=0;entryX=0.624;entryY=-0.019;entryDx=0;entryDy=0;entryPerimeter=0;" parent="1" source="IPaBNMBHqaToawMMxi63-103" target="IPaBNMBHqaToawMMxi63-102" edge="1">
                    <mxGeometry relative="1" as="geometry">
                        <mxPoint x="360" y="80" as="targetPoint"/>
                        <Array as="points">
                            <mxPoint x="-2" y="-70"/>
                            <mxPoint x="360" y="-70"/>
                            <mxPoint x="360" y="98"/>
                        </Array>
                    </mxGeometry>
                </mxCell>
                <mxCell id="IPaBNMBHqaToawMMxi63-125" style="edgeStyle=orthogonalEdgeStyle;rounded=0;orthogonalLoop=1;jettySize=auto;html=1;entryX=0;entryY=0.5;entryDx=0;entryDy=0;fontColor=#000000;endArrow=none;endFill=0;" parent="1" source="IPaBNMBHqaToawMMxi63-103" target="IPaBNMBHqaToawMMxi63-124" edge="1">
                    <mxGeometry relative="1" as="geometry">
                        <Array as="points">
                            <mxPoint x="-2" y="325"/>
                        </Array>
                    </mxGeometry>
                </mxCell>
                <mxCell id="IPaBNMBHqaToawMMxi63-129" value="0-n" style="edgeLabel;html=1;align=center;verticalAlign=middle;resizable=0;points=[];fontColor=#000000;" parent="IPaBNMBHqaToawMMxi63-125" vertex="1" connectable="0">
                    <mxGeometry x="0.5587" y="2" relative="1" as="geometry">
                        <mxPoint as="offset"/>
                    </mxGeometry>
                </mxCell>
                <mxCell id="IPaBNMBHqaToawMMxi63-103" value="Mate" style="rounded=0;whiteSpace=wrap;html=1;" parent="1" vertex="1">
                    <mxGeometry x="-147.5" y="100" width="290" height="120" as="geometry"/>
                </mxCell>
                <mxCell id="IPaBNMBHqaToawMMxi63-106" value="" style="verticalLabelPosition=bottom;verticalAlign=top;html=1;strokeWidth=2;shape=mxgraph.arrows2.arrow;dy=0.6;dx=40;notch=0;fontColor=#000000;fillColor=#000000;rotation=-90;" parent="1" vertex="1">
                    <mxGeometry x="132.5" y="-137.5" width="85" height="50" as="geometry"/>
                </mxCell>
                <mxCell id="IPaBNMBHqaToawMMxi63-126" style="edgeStyle=orthogonalEdgeStyle;rounded=0;orthogonalLoop=1;jettySize=auto;html=1;fontColor=#000000;endArrow=none;endFill=0;entryX=0.277;entryY=1.018;entryDx=0;entryDy=0;entryPerimeter=0;" parent="1" source="IPaBNMBHqaToawMMxi63-124" target="IPaBNMBHqaToawMMxi63-44" edge="1">
                    <mxGeometry relative="1" as="geometry">
                        <mxPoint x="1040" y="320" as="targetPoint"/>
                        <Array as="points">
                            <mxPoint x="1040" y="325"/>
                        </Array>
                    </mxGeometry>
                </mxCell>
                <mxCell id="IPaBNMBHqaToawMMxi63-130" value="1-n" style="edgeLabel;html=1;align=center;verticalAlign=middle;resizable=0;points=[];fontColor=#000000;" parent="IPaBNMBHqaToawMMxi63-126" vertex="1" connectable="0">
                    <mxGeometry x="-0.467" y="-1" relative="1" as="geometry">
                        <mxPoint as="offset"/>
                    </mxGeometry>
                </mxCell>
                <mxCell id="IPaBNMBHqaToawMMxi63-128" style="edgeStyle=orthogonalEdgeStyle;rounded=0;orthogonalLoop=1;jettySize=auto;html=1;fontColor=#000000;endArrow=none;endFill=0;entryX=0.5;entryY=0;entryDx=0;entryDy=0;" parent="1" source="IPaBNMBHqaToawMMxi63-124" target="IPaBNMBHqaToawMMxi63-45" edge="1">
                    <mxGeometry relative="1" as="geometry">
                        <Array as="points">
                            <mxPoint x="568" y="150"/>
                            <mxPoint x="720" y="150"/>
                        </Array>
                    </mxGeometry>
                </mxCell>
                <mxCell id="IPaBNMBHqaToawMMxi63-190" style="edgeStyle=orthogonalEdgeStyle;rounded=0;orthogonalLoop=1;jettySize=auto;html=1;exitX=1;exitY=0;exitDx=0;exitDy=0;fontColor=#000000;endArrow=oval;endFill=1;" parent="1" source="IPaBNMBHqaToawMMxi63-124" edge="1">
                    <mxGeometry relative="1" as="geometry">
                        <mxPoint x="648" y="350" as="targetPoint"/>
                    </mxGeometry>
                </mxCell>
                <mxCell id="IPaBNMBHqaToawMMxi63-124" value="travel_in_company" style="shape=rhombus;perimeter=rhombusPerimeter;whiteSpace=wrap;html=1;align=center;" parent="1" vertex="1">
                    <mxGeometry x="507.6" y="280" width="120" height="90" as="geometry"/>
                </mxCell>
                <mxCell id="IPaBNMBHqaToawMMxi63-127" value="" style="html=1;shadow=0;dashed=0;align=center;verticalAlign=middle;shape=mxgraph.arrows2.arrow;dy=0.6;dx=40;direction=north;notch=0;fontColor=#000000;fillColor=#000000;" parent="1" vertex="1">
                    <mxGeometry x="597.6" y="100" width="30" height="50" as="geometry"/>
                </mxCell>
                <mxCell id="IPaBNMBHqaToawMMxi63-134" style="edgeStyle=orthogonalEdgeStyle;rounded=0;orthogonalLoop=1;jettySize=auto;html=1;fontColor=#000000;endArrow=none;endFill=0;" parent="1" source="IPaBNMBHqaToawMMxi63-133" target="IPaBNMBHqaToawMMxi63-78" edge="1">
                    <mxGeometry relative="1" as="geometry"/>
                </mxCell>
                <mxCell id="IPaBNMBHqaToawMMxi63-136" value="1-n" style="edgeLabel;html=1;align=center;verticalAlign=middle;resizable=0;points=[];fontColor=#000000;" parent="IPaBNMBHqaToawMMxi63-134" vertex="1" connectable="0">
                    <mxGeometry x="-0.1724" y="1" relative="1" as="geometry">
                        <mxPoint as="offset"/>
                    </mxGeometry>
                </mxCell>
                <mxCell id="IPaBNMBHqaToawMMxi63-140" style="edgeStyle=orthogonalEdgeStyle;rounded=0;orthogonalLoop=1;jettySize=auto;html=1;fontColor=#000000;endArrow=oval;endFill=1;exitX=0.98;exitY=0.493;exitDx=0;exitDy=0;exitPerimeter=0;" parent="1" source="IPaBNMBHqaToawMMxi63-133" edge="1">
                    <mxGeometry relative="1" as="geometry">
                        <mxPoint x="1160" y="-840" as="targetPoint"/>
                        <Array as="points">
                            <mxPoint x="1290" y="-911"/>
                            <mxPoint x="1290" y="-840"/>
                        </Array>
                    </mxGeometry>
                </mxCell>
                <mxCell id="IPaBNMBHqaToawMMxi63-133" value="day_of_itinerary" style="shape=rhombus;perimeter=rhombusPerimeter;whiteSpace=wrap;html=1;align=center;" parent="1" vertex="1">
                    <mxGeometry x="1140" y="-960" width="145" height="100" as="geometry"/>
                </mxCell>
                <mxCell id="IPaBNMBHqaToawMMxi63-138" style="edgeStyle=orthogonalEdgeStyle;rounded=0;orthogonalLoop=1;jettySize=auto;html=1;entryX=0.5;entryY=0;entryDx=0;entryDy=0;fontColor=#000000;endArrow=none;endFill=0;" parent="1" source="IPaBNMBHqaToawMMxi63-137" target="IPaBNMBHqaToawMMxi63-133" edge="1">
                    <mxGeometry relative="1" as="geometry"/>
                </mxCell>
                <mxCell id="IPaBNMBHqaToawMMxi63-139" value="1-1" style="edgeLabel;html=1;align=center;verticalAlign=middle;resizable=0;points=[];fontColor=#000000;" parent="IPaBNMBHqaToawMMxi63-138" vertex="1" connectable="0">
                    <mxGeometry x="-0.2374" y="-2" relative="1" as="geometry">
                        <mxPoint as="offset"/>
                    </mxGeometry>
                </mxCell>
                <mxCell id="IPaBNMBHqaToawMMxi63-137" value="Day" style="rounded=0;whiteSpace=wrap;html=1;" parent="1" vertex="1">
                    <mxGeometry x="1067.5" y="-1150" width="290" height="120" as="geometry"/>
                </mxCell>
                <mxCell id="IPaBNMBHqaToawMMxi63-145" style="edgeStyle=orthogonalEdgeStyle;rounded=0;orthogonalLoop=1;jettySize=auto;html=1;fontColor=#000000;endArrow=none;endFill=0;" parent="1" source="IPaBNMBHqaToawMMxi63-141" target="IPaBNMBHqaToawMMxi63-137" edge="1">
                    <mxGeometry relative="1" as="geometry">
                        <Array as="points">
                            <mxPoint x="1443" y="-1090"/>
                        </Array>
                    </mxGeometry>
                </mxCell>
                <mxCell id="CpeaB846haHFIQsKbPVB-128" value="0-n" style="edgeLabel;html=1;align=center;verticalAlign=middle;resizable=0;points=[];" parent="IPaBNMBHqaToawMMxi63-145" vertex="1" connectable="0">
                    <mxGeometry x="-0.562" y="2" relative="1" as="geometry">
                        <mxPoint as="offset"/>
                    </mxGeometry>
                </mxCell>
                <mxCell id="IPaBNMBHqaToawMMxi63-195" style="edgeStyle=orthogonalEdgeStyle;rounded=0;orthogonalLoop=1;jettySize=auto;html=1;fontColor=#000000;endArrow=none;endFill=0;" parent="1" source="IPaBNMBHqaToawMMxi63-141" target="IPaBNMBHqaToawMMxi63-162" edge="1">
                    <mxGeometry relative="1" as="geometry"/>
                </mxCell>
                <mxCell id="CpeaB846haHFIQsKbPVB-129" value="1-1" style="edgeLabel;html=1;align=center;verticalAlign=middle;resizable=0;points=[];" parent="IPaBNMBHqaToawMMxi63-195" vertex="1" connectable="0">
                    <mxGeometry x="-0.1693" y="2" relative="1" as="geometry">
                        <mxPoint as="offset"/>
                    </mxGeometry>
                </mxCell>
                <mxCell id="IPaBNMBHqaToawMMxi63-141" value="day_has_weather" style="shape=rhombus;perimeter=rhombusPerimeter;whiteSpace=wrap;html=1;align=center;" parent="1" vertex="1">
                    <mxGeometry x="1370" y="-1340" width="145" height="100" as="geometry"/>
                </mxCell>
                <mxCell id="IPaBNMBHqaToawMMxi63-148" style="edgeStyle=orthogonalEdgeStyle;rounded=0;orthogonalLoop=1;jettySize=auto;html=1;entryX=0;entryY=0.5;entryDx=0;entryDy=0;fontColor=#000000;endArrow=none;endFill=0;" parent="1" source="IPaBNMBHqaToawMMxi63-143" target="IPaBNMBHqaToawMMxi63-137" edge="1">
                    <mxGeometry relative="1" as="geometry">
                        <Array as="points">
                            <mxPoint x="809" y="-1090"/>
                        </Array>
                    </mxGeometry>
                </mxCell>
                <mxCell id="CpeaB846haHFIQsKbPVB-52" value="0-n" style="edgeLabel;html=1;align=center;verticalAlign=middle;resizable=0;points=[];" parent="IPaBNMBHqaToawMMxi63-148" vertex="1" connectable="0">
                    <mxGeometry x="-0.7053" y="1" relative="1" as="geometry">
                        <mxPoint as="offset"/>
                    </mxGeometry>
                </mxCell>
                <mxCell id="IPaBNMBHqaToawMMxi63-186" style="edgeStyle=orthogonalEdgeStyle;rounded=0;orthogonalLoop=1;jettySize=auto;html=1;entryX=0.55;entryY=1;entryDx=0;entryDy=0;fontColor=#000000;endArrow=none;endFill=0;entryPerimeter=0;" parent="1" edge="1">
                    <mxGeometry relative="1" as="geometry">
                        <mxPoint x="801.5" y="-1405" as="targetPoint"/>
                        <Array as="points">
                            <mxPoint x="809" y="-1405"/>
                        </Array>
                        <mxPoint x="808.6857142857143" y="-1339.9782229965156" as="sourcePoint"/>
                    </mxGeometry>
                </mxCell>
                <mxCell id="CpeaB846haHFIQsKbPVB-50" value="1-1" style="edgeLabel;html=1;align=center;verticalAlign=middle;resizable=0;points=[];" parent="IPaBNMBHqaToawMMxi63-186" vertex="1" connectable="0">
                    <mxGeometry x="-0.491" relative="1" as="geometry">
                        <mxPoint as="offset"/>
                    </mxGeometry>
                </mxCell>
                <mxCell id="IPaBNMBHqaToawMMxi63-143" value="day_has_sea" style="shape=rhombus;perimeter=rhombusPerimeter;whiteSpace=wrap;html=1;align=center;" parent="1" vertex="1">
                    <mxGeometry x="730" y="-1340" width="157.44" height="100" as="geometry"/>
                </mxCell>
                <mxCell id="IPaBNMBHqaToawMMxi63-147" style="edgeStyle=orthogonalEdgeStyle;rounded=0;orthogonalLoop=1;jettySize=auto;html=1;fontColor=#000000;endArrow=none;endFill=0;" parent="1" source="IPaBNMBHqaToawMMxi63-144" target="IPaBNMBHqaToawMMxi63-137" edge="1">
                    <mxGeometry relative="1" as="geometry"/>
                </mxCell>
                <mxCell id="CpeaB846haHFIQsKbPVB-53" value="2-n" style="edgeLabel;html=1;align=center;verticalAlign=middle;resizable=0;points=[];" parent="IPaBNMBHqaToawMMxi63-147" vertex="1" connectable="0">
                    <mxGeometry x="-0.2956" y="-1" relative="1" as="geometry">
                        <mxPoint as="offset"/>
                    </mxGeometry>
                </mxCell>
                <mxCell id="IPaBNMBHqaToawMMxi63-188" style="edgeStyle=orthogonalEdgeStyle;rounded=0;orthogonalLoop=1;jettySize=auto;html=1;entryX=0.538;entryY=1;entryDx=0;entryDy=0;entryPerimeter=0;fontColor=#000000;endArrow=none;endFill=0;" parent="1" source="IPaBNMBHqaToawMMxi63-144" target="IPaBNMBHqaToawMMxi63-156" edge="1">
                    <mxGeometry relative="1" as="geometry"/>
                </mxCell>
                <mxCell id="CpeaB846haHFIQsKbPVB-54" value="1-1" style="edgeLabel;html=1;align=center;verticalAlign=middle;resizable=0;points=[];" parent="IPaBNMBHqaToawMMxi63-188" vertex="1" connectable="0">
                    <mxGeometry x="-0.2849" y="-1" relative="1" as="geometry">
                        <mxPoint as="offset"/>
                    </mxGeometry>
                </mxCell>
                <mxCell id="IPaBNMBHqaToawMMxi63-144" value="day_has_points" style="shape=rhombus;perimeter=rhombusPerimeter;whiteSpace=wrap;html=1;align=center;" parent="1" vertex="1">
                    <mxGeometry x="950" y="-1340" width="145" height="100" as="geometry"/>
                </mxCell>
                <mxCell id="IPaBNMBHqaToawMMxi63-156" value="point" style="rounded=0;whiteSpace=wrap;html=1;" parent="1" vertex="1">
                    <mxGeometry x="968.72" y="-2140" width="100" height="40" as="geometry"/>
                </mxCell>
                <mxCell id="IPaBNMBHqaToawMMxi63-198" style="edgeStyle=orthogonalEdgeStyle;rounded=0;orthogonalLoop=1;jettySize=auto;html=1;entryX=0.5;entryY=1;entryDx=0;entryDy=0;fontColor=#000000;endArrow=none;endFill=0;" parent="1" source="IPaBNMBHqaToawMMxi63-162" target="IPaBNMBHqaToawMMxi63-197" edge="1">
                    <mxGeometry relative="1" as="geometry">
                        <Array as="points">
                            <mxPoint x="1443" y="-1450"/>
                            <mxPoint x="1443" y="-1450"/>
                        </Array>
                    </mxGeometry>
                </mxCell>
                <mxCell id="CpeaB846haHFIQsKbPVB-130" value="0-n" style="edgeLabel;html=1;align=center;verticalAlign=middle;resizable=0;points=[];" parent="IPaBNMBHqaToawMMxi63-198" vertex="1" connectable="0">
                    <mxGeometry x="-0.2953" y="1" relative="1" as="geometry">
                        <mxPoint as="offset"/>
                    </mxGeometry>
                </mxCell>
                <mxCell id="IPaBNMBHqaToawMMxi63-162" value="Weather" style="rounded=0;whiteSpace=wrap;html=1;" parent="1" vertex="1">
                    <mxGeometry x="1327.5" y="-1450" width="230" height="50" as="geometry"/>
                </mxCell>
                <mxCell id="IPaBNMBHqaToawMMxi63-199" value="0-n" style="edgeStyle=orthogonalEdgeStyle;rounded=0;orthogonalLoop=1;jettySize=auto;html=1;entryX=0.5;entryY=1;entryDx=0;entryDy=0;fontColor=#000000;endArrow=none;endFill=0;" parent="1" source="IPaBNMBHqaToawMMxi63-163" target="IPaBNMBHqaToawMMxi63-196" edge="1">
                    <mxGeometry relative="1" as="geometry"/>
                </mxCell>
                <mxCell id="IPaBNMBHqaToawMMxi63-163" value="Sea" style="rounded=0;whiteSpace=wrap;html=1;" parent="1" vertex="1">
                    <mxGeometry x="675" y="-1455" width="230" height="50" as="geometry"/>
                </mxCell>
                <mxCell id="IPaBNMBHqaToawMMxi63-203" style="edgeStyle=orthogonalEdgeStyle;rounded=0;orthogonalLoop=1;jettySize=auto;html=1;fontColor=#000000;endArrow=none;endFill=0;" parent="1" source="IPaBNMBHqaToawMMxi63-196" target="IPaBNMBHqaToawMMxi63-200" edge="1">
                    <mxGeometry relative="1" as="geometry"/>
                </mxCell>
                <mxCell id="CpeaB846haHFIQsKbPVB-31" value="1-1" style="edgeLabel;html=1;align=center;verticalAlign=middle;resizable=0;points=[];" parent="IPaBNMBHqaToawMMxi63-203" vertex="1" connectable="0">
                    <mxGeometry x="-0.1752" y="-3" relative="1" as="geometry">
                        <mxPoint as="offset"/>
                    </mxGeometry>
                </mxCell>
                <mxCell id="IPaBNMBHqaToawMMxi63-196" value="sea_has_state" style="shape=rhombus;perimeter=rhombusPerimeter;whiteSpace=wrap;html=1;align=center;" parent="1" vertex="1">
                    <mxGeometry x="711.28" y="-1600" width="157.44" height="100" as="geometry"/>
                </mxCell>
                <mxCell id="IPaBNMBHqaToawMMxi63-202" style="edgeStyle=orthogonalEdgeStyle;rounded=0;orthogonalLoop=1;jettySize=auto;html=1;entryX=0.5;entryY=1;entryDx=0;entryDy=0;fontColor=#000000;endArrow=none;endFill=0;" parent="1" source="IPaBNMBHqaToawMMxi63-197" target="IPaBNMBHqaToawMMxi63-201" edge="1">
                    <mxGeometry relative="1" as="geometry"/>
                </mxCell>
                <mxCell id="CpeaB846haHFIQsKbPVB-131" value="1-1" style="edgeLabel;html=1;align=center;verticalAlign=middle;resizable=0;points=[];" parent="IPaBNMBHqaToawMMxi63-202" vertex="1" connectable="0">
                    <mxGeometry x="-0.636" y="1" relative="1" as="geometry">
                        <mxPoint as="offset"/>
                    </mxGeometry>
                </mxCell>
                <mxCell id="IPaBNMBHqaToawMMxi63-197" value="weather_has_state" style="shape=rhombus;perimeter=rhombusPerimeter;whiteSpace=wrap;html=1;align=center;" parent="1" vertex="1">
                    <mxGeometry x="1370" y="-1600" width="145" height="100" as="geometry"/>
                </mxCell>
                <mxCell id="IPaBNMBHqaToawMMxi63-204" style="edgeStyle=orthogonalEdgeStyle;rounded=0;orthogonalLoop=1;jettySize=auto;html=1;fontColor=#000000;endArrow=oval;endFill=1;" parent="1" edge="1">
                    <mxGeometry relative="1" as="geometry">
                        <mxPoint x="970" y="-1680" as="targetPoint"/>
                        <mxPoint x="700" y="-1645" as="sourcePoint"/>
                    </mxGeometry>
                </mxCell>
                <mxCell id="IPaBNMBHqaToawMMxi63-200" value="sea_state" style="rounded=0;whiteSpace=wrap;html=1;" parent="1" vertex="1">
                    <mxGeometry x="675" y="-1720" width="230" height="50" as="geometry"/>
                </mxCell>
                <mxCell id="IPaBNMBHqaToawMMxi63-201" value="weather_state" style="rounded=0;whiteSpace=wrap;html=1;" parent="1" vertex="1">
                    <mxGeometry x="1327.5" y="-1720" width="230" height="50" as="geometry"/>
                </mxCell>
                <mxCell id="IPaBNMBHqaToawMMxi63-205" style="edgeStyle=orthogonalEdgeStyle;rounded=0;orthogonalLoop=1;jettySize=auto;html=1;fontColor=#000000;endArrow=oval;endFill=1;" parent="1" edge="1">
                    <mxGeometry relative="1" as="geometry">
                        <mxPoint x="1610" y="-1685" as="targetPoint"/>
                        <mxPoint x="1340" y="-1650" as="sourcePoint"/>
                    </mxGeometry>
                </mxCell>
                <mxCell id="CpeaB846haHFIQsKbPVB-5" style="edgeStyle=orthogonalEdgeStyle;rounded=0;orthogonalLoop=1;jettySize=auto;html=1;endArrow=none;endFill=0;" parent="1" source="CpeaB846haHFIQsKbPVB-4" target="IPaBNMBHqaToawMMxi63-76" edge="1">
                    <mxGeometry relative="1" as="geometry"/>
                </mxCell>
                <mxCell id="CpeaB846haHFIQsKbPVB-8" value="0-n" style="edgeLabel;html=1;align=center;verticalAlign=middle;resizable=0;points=[];" parent="CpeaB846haHFIQsKbPVB-5" vertex="1" connectable="0">
                    <mxGeometry x="0.3751" relative="1" as="geometry">
                        <mxPoint as="offset"/>
                    </mxGeometry>
                </mxCell>
                <mxCell id="CpeaB846haHFIQsKbPVB-4" value="inventory_has_item" style="shape=rhombus;perimeter=rhombusPerimeter;whiteSpace=wrap;html=1;align=center;" parent="1" vertex="1">
                    <mxGeometry x="742.44" y="-950" width="145" height="100" as="geometry"/>
                </mxCell>
                <mxCell id="CpeaB846haHFIQsKbPVB-7" style="edgeStyle=orthogonalEdgeStyle;rounded=0;orthogonalLoop=1;jettySize=auto;html=1;entryX=0;entryY=0.5;entryDx=0;entryDy=0;endArrow=none;endFill=0;exitX=0.5;exitY=1;exitDx=0;exitDy=0;" parent="1" source="CpeaB846haHFIQsKbPVB-6" target="CpeaB846haHFIQsKbPVB-4" edge="1">
                    <mxGeometry relative="1" as="geometry"/>
                </mxCell>
                <mxCell id="CpeaB846haHFIQsKbPVB-9" value="0-n" style="edgeLabel;html=1;align=center;verticalAlign=middle;resizable=0;points=[];" parent="CpeaB846haHFIQsKbPVB-7" vertex="1" connectable="0">
                    <mxGeometry x="0.2938" y="-1" relative="1" as="geometry">
                        <mxPoint as="offset"/>
                    </mxGeometry>
                </mxCell>
                <mxCell id="CpeaB846haHFIQsKbPVB-6" value="Item" style="rounded=0;whiteSpace=wrap;html=1;" parent="1" vertex="1">
                    <mxGeometry x="379.94000000000005" y="-1090" width="290" height="120" as="geometry"/>
                </mxCell>
                <mxCell id="CpeaB846haHFIQsKbPVB-11" style="edgeStyle=orthogonalEdgeStyle;rounded=0;orthogonalLoop=1;jettySize=auto;html=1;endArrow=none;endFill=0;entryX=0.084;entryY=0.007;entryDx=0;entryDy=0;entryPerimeter=0;" parent="1" source="CpeaB846haHFIQsKbPVB-10" target="CpeaB846haHFIQsKbPVB-6" edge="1">
                    <mxGeometry relative="1" as="geometry"/>
                </mxCell>
                <mxCell id="CpeaB846haHFIQsKbPVB-10" value="Id" style="ellipse;shape=doubleEllipse;margin=3;whiteSpace=wrap;html=1;align=center;" parent="1" vertex="1">
                    <mxGeometry x="385" y="-1160" width="40" height="40" as="geometry"/>
                </mxCell>
                <mxCell id="CpeaB846haHFIQsKbPVB-15" style="edgeStyle=orthogonalEdgeStyle;rounded=0;orthogonalLoop=1;jettySize=auto;html=1;entryX=0.293;entryY=0.003;entryDx=0;entryDy=0;entryPerimeter=0;endArrow=none;endFill=0;" parent="1" source="CpeaB846haHFIQsKbPVB-13" target="CpeaB846haHFIQsKbPVB-6" edge="1">
                    <mxGeometry relative="1" as="geometry">
                        <Array as="points">
                            <mxPoint x="465" y="-1100"/>
                            <mxPoint x="465" y="-1100"/>
                        </Array>
                    </mxGeometry>
                </mxCell>
                <mxCell id="CpeaB846haHFIQsKbPVB-13" value="category" style="ellipse;whiteSpace=wrap;html=1;align=center;" parent="1" vertex="1">
                    <mxGeometry x="440" y="-1160" width="50" height="40" as="geometry"/>
                </mxCell>
                <mxCell id="CpeaB846haHFIQsKbPVB-17" style="edgeStyle=orthogonalEdgeStyle;rounded=0;orthogonalLoop=1;jettySize=auto;html=1;entryX=0.5;entryY=0;entryDx=0;entryDy=0;endArrow=none;endFill=0;" parent="1" source="CpeaB846haHFIQsKbPVB-16" target="CpeaB846haHFIQsKbPVB-6" edge="1">
                    <mxGeometry relative="1" as="geometry"/>
                </mxCell>
                <mxCell id="CpeaB846haHFIQsKbPVB-16" value="checked" style="ellipse;whiteSpace=wrap;html=1;align=center;" parent="1" vertex="1">
                    <mxGeometry x="499.94" y="-1160" width="50" height="40" as="geometry"/>
                </mxCell>
                <mxCell id="CpeaB846haHFIQsKbPVB-19" style="edgeStyle=orthogonalEdgeStyle;rounded=0;orthogonalLoop=1;jettySize=auto;html=1;entryX=0.707;entryY=0.013;entryDx=0;entryDy=0;entryPerimeter=0;endArrow=none;endFill=0;" parent="1" source="CpeaB846haHFIQsKbPVB-18" target="CpeaB846haHFIQsKbPVB-6" edge="1">
                    <mxGeometry relative="1" as="geometry"/>
                </mxCell>
                <mxCell id="CpeaB846haHFIQsKbPVB-18" value="name" style="ellipse;whiteSpace=wrap;html=1;align=center;" parent="1" vertex="1">
                    <mxGeometry x="560" y="-1160" width="50" height="40" as="geometry"/>
                </mxCell>
                <mxCell id="CpeaB846haHFIQsKbPVB-24" style="edgeStyle=orthogonalEdgeStyle;rounded=0;orthogonalLoop=1;jettySize=auto;html=1;entryX=0.755;entryY=1;entryDx=0;entryDy=0;entryPerimeter=0;endArrow=none;endFill=0;" parent="1" source="CpeaB846haHFIQsKbPVB-22" target="IPaBNMBHqaToawMMxi63-200" edge="1">
                    <mxGeometry relative="1" as="geometry"/>
                </mxCell>
                <mxCell id="CpeaB846haHFIQsKbPVB-22" value="time" style="ellipse;whiteSpace=wrap;html=1;aspect=fixed;" parent="1" vertex="1">
                    <mxGeometry x="828.72" y="-1640" width="40" height="40" as="geometry"/>
                </mxCell>
                <mxCell id="CpeaB846haHFIQsKbPVB-28" style="edgeStyle=orthogonalEdgeStyle;rounded=0;orthogonalLoop=1;jettySize=auto;html=1;entryX=0.8;entryY=0.008;entryDx=0;entryDy=0;entryPerimeter=0;endArrow=none;endFill=0;" parent="1" source="CpeaB846haHFIQsKbPVB-26" target="IPaBNMBHqaToawMMxi63-163" edge="1">
                    <mxGeometry relative="1" as="geometry"/>
                </mxCell>
                <mxCell id="CpeaB846haHFIQsKbPVB-26" value="high tide" style="ellipse;whiteSpace=wrap;html=1;aspect=fixed;" parent="1" vertex="1">
                    <mxGeometry x="838.72" y="-1520" width="40" height="40" as="geometry"/>
                </mxCell>
                <mxCell id="CpeaB846haHFIQsKbPVB-33" style="edgeStyle=orthogonalEdgeStyle;rounded=0;orthogonalLoop=1;jettySize=auto;html=1;endArrow=none;endFill=0;entryX=0.085;entryY=-0.001;entryDx=0;entryDy=0;entryPerimeter=0;" parent="1" source="CpeaB846haHFIQsKbPVB-32" target="IPaBNMBHqaToawMMxi63-200" edge="1">
                    <mxGeometry relative="1" as="geometry"/>
                </mxCell>
                <mxCell id="CpeaB846haHFIQsKbPVB-32" value="wave height" style="ellipse;whiteSpace=wrap;html=1;aspect=fixed;" parent="1" vertex="1">
                    <mxGeometry x="675" y="-1780" width="40" height="40" as="geometry"/>
                </mxCell>
                <mxCell id="CpeaB846haHFIQsKbPVB-35" style="edgeStyle=orthogonalEdgeStyle;rounded=0;orthogonalLoop=1;jettySize=auto;html=1;entryX=0.304;entryY=0;entryDx=0;entryDy=0;entryPerimeter=0;endArrow=none;endFill=0;" parent="1" source="CpeaB846haHFIQsKbPVB-34" target="IPaBNMBHqaToawMMxi63-200" edge="1">
                    <mxGeometry relative="1" as="geometry">
                        <Array as="points">
                            <mxPoint x="745" y="-1720"/>
                            <mxPoint x="745" y="-1720"/>
                        </Array>
                    </mxGeometry>
                </mxCell>
                <mxCell id="CpeaB846haHFIQsKbPVB-34" value="wave direction" style="ellipse;whiteSpace=wrap;html=1;aspect=fixed;" parent="1" vertex="1">
                    <mxGeometry x="720" y="-1785" width="50" height="50" as="geometry"/>
                </mxCell>
                <mxCell id="CpeaB846haHFIQsKbPVB-37" style="edgeStyle=orthogonalEdgeStyle;rounded=0;orthogonalLoop=1;jettySize=auto;html=1;entryX=0.559;entryY=-0.035;entryDx=0;entryDy=0;entryPerimeter=0;endArrow=none;endFill=0;" parent="1" source="CpeaB846haHFIQsKbPVB-36" target="IPaBNMBHqaToawMMxi63-200" edge="1">
                    <mxGeometry relative="1" as="geometry">
                        <Array as="points">
                            <mxPoint x="804" y="-1720"/>
                        </Array>
                    </mxGeometry>
                </mxCell>
                <mxCell id="CpeaB846haHFIQsKbPVB-36" value="swell direction" style="ellipse;whiteSpace=wrap;html=1;aspect=fixed;" parent="1" vertex="1">
                    <mxGeometry x="778.72" y="-1785" width="50" height="50" as="geometry"/>
                </mxCell>
                <mxCell id="CpeaB846haHFIQsKbPVB-39" style="edgeStyle=orthogonalEdgeStyle;rounded=0;orthogonalLoop=1;jettySize=auto;html=1;endArrow=none;endFill=0;entryX=0.798;entryY=-0.02;entryDx=0;entryDy=0;entryPerimeter=0;" parent="1" source="CpeaB846haHFIQsKbPVB-38" target="IPaBNMBHqaToawMMxi63-200" edge="1">
                    <mxGeometry relative="1" as="geometry">
                        <Array as="points">
                            <mxPoint x="859" y="-1730"/>
                            <mxPoint x="858" y="-1730"/>
                        </Array>
                    </mxGeometry>
                </mxCell>
                <mxCell id="CpeaB846haHFIQsKbPVB-38" value="swell period" style="ellipse;whiteSpace=wrap;html=1;aspect=fixed;" parent="1" vertex="1">
                    <mxGeometry x="833.72" y="-1785" width="50" height="50" as="geometry"/>
                </mxCell>
                <mxCell id="CpeaB846haHFIQsKbPVB-43" style="edgeStyle=orthogonalEdgeStyle;rounded=0;orthogonalLoop=1;jettySize=auto;html=1;entryX=0.993;entryY=0.019;entryDx=0;entryDy=0;entryPerimeter=0;endArrow=none;endFill=0;" parent="1" source="CpeaB846haHFIQsKbPVB-42" target="IPaBNMBHqaToawMMxi63-163" edge="1">
                    <mxGeometry relative="1" as="geometry"/>
                </mxCell>
                <mxCell id="CpeaB846haHFIQsKbPVB-42" value="low tide" style="ellipse;whiteSpace=wrap;html=1;aspect=fixed;" parent="1" vertex="1">
                    <mxGeometry x="883.72" y="-1520" width="40" height="40" as="geometry"/>
                </mxCell>
                <mxCell id="CpeaB846haHFIQsKbPVB-45" style="edgeStyle=orthogonalEdgeStyle;rounded=0;orthogonalLoop=1;jettySize=auto;html=1;endArrow=none;endFill=0;entryX=0.109;entryY=0.001;entryDx=0;entryDy=0;entryPerimeter=0;" parent="1" source="CpeaB846haHFIQsKbPVB-44" target="IPaBNMBHqaToawMMxi63-163" edge="1">
                    <mxGeometry relative="1" as="geometry">
                        <mxPoint x="700" y="-1460" as="targetPoint"/>
                    </mxGeometry>
                </mxCell>
                <mxCell id="CpeaB846haHFIQsKbPVB-44" value="moon phase" style="ellipse;whiteSpace=wrap;html=1;aspect=fixed;" parent="1" vertex="1">
                    <mxGeometry x="680" y="-1520" width="40" height="40" as="geometry"/>
                </mxCell>
                <mxCell id="CpeaB846haHFIQsKbPVB-47" style="edgeStyle=orthogonalEdgeStyle;rounded=0;orthogonalLoop=1;jettySize=auto;html=1;endArrow=none;endFill=0;" parent="1" source="CpeaB846haHFIQsKbPVB-46" edge="1">
                    <mxGeometry relative="1" as="geometry">
                        <mxPoint x="1048.72" y="-2100" as="targetPoint"/>
                        <Array as="points">
                            <mxPoint x="1048.72" y="-2100"/>
                        </Array>
                    </mxGeometry>
                </mxCell>
                <mxCell id="CpeaB846haHFIQsKbPVB-46" value="gps" style="ellipse;whiteSpace=wrap;html=1;aspect=fixed;" parent="1" vertex="1">
                    <mxGeometry x="1028.72" y="-2050" width="40" height="40" as="geometry"/>
                </mxCell>
                <mxCell id="CpeaB846haHFIQsKbPVB-51" value="" style="endArrow=oval;html=1;rounded=0;endFill=1;" parent="1" edge="1">
                    <mxGeometry width="50" height="50" relative="1" as="geometry">
                        <mxPoint x="779" y="-1380" as="sourcePoint"/>
                        <mxPoint x="840" y="-1380" as="targetPoint"/>
                    </mxGeometry>
                </mxCell>
                <mxCell id="CpeaB846haHFIQsKbPVB-61" value="" style="endArrow=oval;html=1;rounded=0;sourcePerimeterSpacing=1;elbow=vertical;jumpStyle=none;endFill=1;" parent="1" edge="1">
                    <mxGeometry relative="1" as="geometry">
                        <mxPoint x="1018.72" y="-2070" as="sourcePoint"/>
                        <mxPoint x="1058.72" y="-2070" as="targetPoint"/>
                        <Array as="points">
                            <mxPoint x="988.72" y="-2070"/>
                        </Array>
                    </mxGeometry>
                </mxCell>
                <mxCell id="CpeaB846haHFIQsKbPVB-63" style="edgeStyle=elbowEdgeStyle;rounded=0;jumpStyle=none;orthogonalLoop=1;jettySize=auto;elbow=vertical;html=1;entryX=0;entryY=0.5;entryDx=0;entryDy=0;endArrow=none;endFill=0;sourcePerimeterSpacing=1;exitX=0.5;exitY=1;exitDx=0;exitDy=0;" parent="1" source="CpeaB846haHFIQsKbPVB-62" target="IPaBNMBHqaToawMMxi63-156" edge="1">
                    <mxGeometry relative="1" as="geometry">
                        <Array as="points">
                            <mxPoint x="888.72" y="-2120"/>
                            <mxPoint x="1118.72" y="-2200"/>
                            <mxPoint x="1058.72" y="-2140"/>
                            <mxPoint x="1108.72" y="-2190"/>
                        </Array>
                    </mxGeometry>
                </mxCell>
                <mxCell id="CpeaB846haHFIQsKbPVB-64" value="Previous" style="edgeLabel;html=1;align=center;verticalAlign=middle;resizable=0;points=[];" parent="CpeaB846haHFIQsKbPVB-63" vertex="1" connectable="0">
                    <mxGeometry x="-0.6233" relative="1" as="geometry">
                        <mxPoint as="offset"/>
                    </mxGeometry>
                </mxCell>
                <mxCell id="CpeaB846haHFIQsKbPVB-68" value="0-1" style="edgeLabel;html=1;align=center;verticalAlign=middle;resizable=0;points=[];" parent="CpeaB846haHFIQsKbPVB-63" vertex="1" connectable="0">
                    <mxGeometry x="-0.0168" relative="1" as="geometry">
                        <mxPoint as="offset"/>
                    </mxGeometry>
                </mxCell>
                <mxCell id="CpeaB846haHFIQsKbPVB-65" style="edgeStyle=elbowEdgeStyle;rounded=0;jumpStyle=none;orthogonalLoop=1;jettySize=auto;elbow=vertical;html=1;entryX=0.25;entryY=0;entryDx=0;entryDy=0;endArrow=none;endFill=0;sourcePerimeterSpacing=1;exitX=1;exitY=0.5;exitDx=0;exitDy=0;" parent="1" source="CpeaB846haHFIQsKbPVB-62" target="IPaBNMBHqaToawMMxi63-156" edge="1">
                    <mxGeometry relative="1" as="geometry">
                        <Array as="points">
                            <mxPoint x="988.72" y="-2240"/>
                        </Array>
                    </mxGeometry>
                </mxCell>
                <mxCell id="CpeaB846haHFIQsKbPVB-66" value="Next" style="edgeLabel;html=1;align=center;verticalAlign=middle;resizable=0;points=[];" parent="CpeaB846haHFIQsKbPVB-65" vertex="1" connectable="0">
                    <mxGeometry x="-0.3034" relative="1" as="geometry">
                        <mxPoint as="offset"/>
                    </mxGeometry>
                </mxCell>
                <mxCell id="CpeaB846haHFIQsKbPVB-67" value="0-1" style="edgeLabel;html=1;align=center;verticalAlign=middle;resizable=0;points=[];" parent="CpeaB846haHFIQsKbPVB-65" vertex="1" connectable="0">
                    <mxGeometry x="0.4623" y="1" relative="1" as="geometry">
                        <mxPoint as="offset"/>
                    </mxGeometry>
                </mxCell>
                <mxCell id="CpeaB846haHFIQsKbPVB-62" value="next/previous" style="shape=rhombus;perimeter=rhombusPerimeter;whiteSpace=wrap;html=1;align=center;" parent="1" vertex="1">
                    <mxGeometry x="818.72" y="-2290" width="157.44" height="100" as="geometry"/>
                </mxCell>
                <mxCell id="CpeaB846haHFIQsKbPVB-73" style="edgeStyle=elbowEdgeStyle;rounded=0;jumpStyle=none;orthogonalLoop=1;jettySize=auto;elbow=vertical;html=1;entryX=1.002;entryY=0.128;entryDx=0;entryDy=0;endArrow=none;endFill=0;sourcePerimeterSpacing=1;entryPerimeter=0;exitX=0.5;exitY=1;exitDx=0;exitDy=0;" parent="1" source="CpeaB846haHFIQsKbPVB-72" target="IPaBNMBHqaToawMMxi63-156" edge="1">
                    <mxGeometry relative="1" as="geometry">
                        <Array as="points">
                            <mxPoint x="1128.72" y="-2140"/>
                        </Array>
                    </mxGeometry>
                </mxCell>
                <mxCell id="CpeaB846haHFIQsKbPVB-75" value="0-n" style="edgeLabel;html=1;align=center;verticalAlign=middle;resizable=0;points=[];" parent="CpeaB846haHFIQsKbPVB-73" vertex="1" connectable="0">
                    <mxGeometry x="-0.6649" y="-1" relative="1" as="geometry">
                        <mxPoint as="offset"/>
                    </mxGeometry>
                </mxCell>
                <mxCell id="CpeaB846haHFIQsKbPVB-74" style="edgeStyle=elbowEdgeStyle;rounded=0;jumpStyle=none;orthogonalLoop=1;jettySize=auto;elbow=vertical;html=1;endArrow=none;endFill=0;sourcePerimeterSpacing=1;exitX=0;exitY=0.5;exitDx=0;exitDy=0;entryX=0.75;entryY=0;entryDx=0;entryDy=0;" parent="1" source="CpeaB846haHFIQsKbPVB-72" target="IPaBNMBHqaToawMMxi63-156" edge="1">
                    <mxGeometry relative="1" as="geometry">
                        <Array as="points">
                            <mxPoint x="1098.72" y="-2245"/>
                            <mxPoint x="1078.72" y="-2245"/>
                            <mxPoint x="1108.72" y="-2245"/>
                        </Array>
                    </mxGeometry>
                </mxCell>
                <mxCell id="CpeaB846haHFIQsKbPVB-76" value="0-n" style="edgeLabel;html=1;align=center;verticalAlign=middle;resizable=0;points=[];" parent="CpeaB846haHFIQsKbPVB-74" vertex="1" connectable="0">
                    <mxGeometry x="-0.2631" relative="1" as="geometry">
                        <mxPoint as="offset"/>
                    </mxGeometry>
                </mxCell>
                <mxCell id="CpeaB846haHFIQsKbPVB-72" value="is nearby" style="shape=rhombus;perimeter=rhombusPerimeter;whiteSpace=wrap;html=1;align=center;" parent="1" vertex="1">
                    <mxGeometry x="1118.72" y="-2290" width="131.22" height="90" as="geometry"/>
                </mxCell>
                <mxCell id="CpeaB846haHFIQsKbPVB-80" style="edgeStyle=elbowEdgeStyle;rounded=0;jumpStyle=none;orthogonalLoop=1;jettySize=auto;elbow=vertical;html=1;endArrow=none;endFill=0;sourcePerimeterSpacing=1;exitX=1;exitY=0.5;exitDx=0;exitDy=0;" parent="1" source="CpeaB846haHFIQsKbPVB-77" edge="1">
                    <mxGeometry relative="1" as="geometry">
                        <mxPoint x="968.72" y="-2108" as="targetPoint"/>
                        <Array as="points">
                            <mxPoint x="948.72" y="-2080"/>
                        </Array>
                    </mxGeometry>
                </mxCell>
                <mxCell id="CpeaB846haHFIQsKbPVB-77" value="notes" style="ellipse;whiteSpace=wrap;html=1;aspect=fixed;" parent="1" vertex="1">
                    <mxGeometry x="877.44" y="-2100" width="40" height="40" as="geometry"/>
                </mxCell>
                <mxCell id="CpeaB846haHFIQsKbPVB-82" style="edgeStyle=elbowEdgeStyle;rounded=0;jumpStyle=none;orthogonalLoop=1;jettySize=auto;elbow=vertical;html=1;entryX=0.5;entryY=0;entryDx=0;entryDy=0;endArrow=none;endFill=0;sourcePerimeterSpacing=1;" parent="1" source="CpeaB846haHFIQsKbPVB-79" target="IPaBNMBHqaToawMMxi63-156" edge="1">
                    <mxGeometry relative="1" as="geometry"/>
                </mxCell>
                <mxCell id="CpeaB846haHFIQsKbPVB-93" value="0-n" style="edgeLabel;html=1;align=center;verticalAlign=middle;resizable=0;points=[];" parent="CpeaB846haHFIQsKbPVB-82" vertex="1" connectable="0">
                    <mxGeometry x="-0.5694" y="-2" relative="1" as="geometry">
                        <mxPoint as="offset"/>
                    </mxGeometry>
                </mxCell>
                <mxCell id="CpeaB846haHFIQsKbPVB-79" value="point_has_image" style="shape=rhombus;perimeter=rhombusPerimeter;whiteSpace=wrap;html=1;align=center;" parent="1" vertex="1">
                    <mxGeometry x="953.11" y="-2380" width="131.22" height="90" as="geometry"/>
                </mxCell>
                <mxCell id="CpeaB846haHFIQsKbPVB-85" style="edgeStyle=elbowEdgeStyle;rounded=0;jumpStyle=none;orthogonalLoop=1;jettySize=auto;elbow=vertical;html=1;endArrow=none;endFill=0;sourcePerimeterSpacing=1;" parent="1" source="CpeaB846haHFIQsKbPVB-84" target="CpeaB846haHFIQsKbPVB-79" edge="1">
                    <mxGeometry relative="1" as="geometry"/>
                </mxCell>
                <mxCell id="CpeaB846haHFIQsKbPVB-94" value="1-1" style="edgeLabel;html=1;align=center;verticalAlign=middle;resizable=0;points=[];" parent="CpeaB846haHFIQsKbPVB-85" vertex="1" connectable="0">
                    <mxGeometry x="0.4431" y="-5" relative="1" as="geometry">
                        <mxPoint as="offset"/>
                    </mxGeometry>
                </mxCell>
                <mxCell id="CpeaB846haHFIQsKbPVB-84" value="Image" style="rounded=0;whiteSpace=wrap;html=1;" parent="1" vertex="1">
                    <mxGeometry x="968.72" y="-2490" width="100" height="40" as="geometry"/>
                </mxCell>
                <mxCell id="CpeaB846haHFIQsKbPVB-87" style="edgeStyle=elbowEdgeStyle;rounded=0;jumpStyle=none;orthogonalLoop=1;jettySize=auto;elbow=vertical;html=1;endArrow=none;endFill=0;sourcePerimeterSpacing=1;" parent="1" source="CpeaB846haHFIQsKbPVB-86" edge="1">
                    <mxGeometry relative="1" as="geometry">
                        <mxPoint x="973.11" y="-2490" as="targetPoint"/>
                    </mxGeometry>
                </mxCell>
                <mxCell id="CpeaB846haHFIQsKbPVB-86" value="size" style="ellipse;whiteSpace=wrap;html=1;aspect=fixed;" parent="1" vertex="1">
                    <mxGeometry x="953.11" y="-2590" width="40" height="40" as="geometry"/>
                </mxCell>
                <mxCell id="CpeaB846haHFIQsKbPVB-89" style="edgeStyle=elbowEdgeStyle;rounded=0;jumpStyle=none;orthogonalLoop=1;jettySize=auto;elbow=vertical;html=1;endArrow=none;endFill=0;sourcePerimeterSpacing=1;entryX=0.797;entryY=-0.017;entryDx=0;entryDy=0;entryPerimeter=0;" parent="1" source="CpeaB846haHFIQsKbPVB-88" edge="1">
                    <mxGeometry relative="1" as="geometry">
                        <mxPoint x="1059.0300000000004" y="-2490" as="targetPoint"/>
                    </mxGeometry>
                </mxCell>
                <mxCell id="CpeaB846haHFIQsKbPVB-88" value="location" style="ellipse;whiteSpace=wrap;html=1;aspect=fixed;" parent="1" vertex="1">
                    <mxGeometry x="1034.33" y="-2589.32" width="50" height="50" as="geometry"/>
                </mxCell>
                <mxCell id="CpeaB846haHFIQsKbPVB-92" style="edgeStyle=elbowEdgeStyle;rounded=0;jumpStyle=none;orthogonalLoop=1;jettySize=auto;elbow=vertical;html=1;entryX=1;entryY=0.5;entryDx=0;entryDy=0;endArrow=none;endFill=0;sourcePerimeterSpacing=1;exitX=0;exitY=0.5;exitDx=0;exitDy=0;" parent="1" source="CpeaB846haHFIQsKbPVB-91" target="CpeaB846haHFIQsKbPVB-84" edge="1">
                    <mxGeometry relative="1" as="geometry">
                        <Array as="points"/>
                    </mxGeometry>
                </mxCell>
                <mxCell id="CpeaB846haHFIQsKbPVB-91" value="Id" style="ellipse;whiteSpace=wrap;html=1;align=center;fontStyle=4;" parent="1" vertex="1">
                    <mxGeometry x="1110" y="-2490" width="40" height="40" as="geometry"/>
                </mxCell>
                <mxCell id="CpeaB846haHFIQsKbPVB-99" style="edgeStyle=elbowEdgeStyle;rounded=0;jumpStyle=none;orthogonalLoop=1;jettySize=auto;elbow=vertical;html=1;endArrow=none;endFill=0;sourcePerimeterSpacing=1;" parent="1" source="CpeaB846haHFIQsKbPVB-98" edge="1">
                    <mxGeometry relative="1" as="geometry">
                        <mxPoint x="40" y="-250" as="targetPoint"/>
                    </mxGeometry>
                </mxCell>
                <mxCell id="CpeaB846haHFIQsKbPVB-98" value="name" style="ellipse;whiteSpace=wrap;html=1;align=center;" parent="1" vertex="1">
                    <mxGeometry x="-70" y="-270" width="40" height="40" as="geometry"/>
                </mxCell>
                <mxCell id="CpeaB846haHFIQsKbPVB-101" style="edgeStyle=elbowEdgeStyle;rounded=0;jumpStyle=none;orthogonalLoop=1;jettySize=auto;elbow=vertical;html=1;endArrow=none;endFill=0;sourcePerimeterSpacing=1;" parent="1" source="CpeaB846haHFIQsKbPVB-100" target="IPaBNMBHqaToawMMxi63-1" edge="1">
                    <mxGeometry relative="1" as="geometry"/>
                </mxCell>
                <mxCell id="CpeaB846haHFIQsKbPVB-103" value="0-1" style="edgeLabel;html=1;align=center;verticalAlign=middle;resizable=0;points=[];" parent="CpeaB846haHFIQsKbPVB-101" vertex="1" connectable="0">
                    <mxGeometry x="-0.2701" y="2" relative="1" as="geometry">
                        <mxPoint as="offset"/>
                    </mxGeometry>
                </mxCell>
                <mxCell id="CpeaB846haHFIQsKbPVB-102" style="edgeStyle=elbowEdgeStyle;rounded=0;jumpStyle=none;orthogonalLoop=1;jettySize=auto;elbow=vertical;html=1;endArrow=none;endFill=0;sourcePerimeterSpacing=1;" parent="1" source="CpeaB846haHFIQsKbPVB-100" target="CpeaB846haHFIQsKbPVB-84" edge="1">
                    <mxGeometry relative="1" as="geometry">
                        <mxPoint x="-50" y="-1600" as="targetPoint"/>
                        <Array as="points">
                            <mxPoint x="440" y="-2460"/>
                        </Array>
                    </mxGeometry>
                </mxCell>
                <mxCell id="CpeaB846haHFIQsKbPVB-100" value="has _profile_pic" style="shape=rhombus;perimeter=rhombusPerimeter;whiteSpace=wrap;html=1;align=center;" parent="1" vertex="1">
                    <mxGeometry x="-240" y="-240" width="120" height="60" as="geometry"/>
                </mxCell>
                <mxCell id="CpeaB846haHFIQsKbPVB-105" style="edgeStyle=elbowEdgeStyle;rounded=0;jumpStyle=none;orthogonalLoop=1;jettySize=auto;elbow=vertical;html=1;endArrow=none;endFill=0;sourcePerimeterSpacing=1;entryX=0.707;entryY=0.998;entryDx=0;entryDy=0;entryPerimeter=0;" parent="1" source="CpeaB846haHFIQsKbPVB-104" target="IPaBNMBHqaToawMMxi63-201" edge="1">
                    <mxGeometry relative="1" as="geometry"/>
                </mxCell>
                <mxCell id="CpeaB846haHFIQsKbPVB-104" value="time" style="ellipse;whiteSpace=wrap;html=1;aspect=fixed;" parent="1" vertex="1">
                    <mxGeometry x="1470" y="-1640" width="40" height="40" as="geometry"/>
                </mxCell>
                <mxCell id="CpeaB846haHFIQsKbPVB-107" style="edgeStyle=elbowEdgeStyle;rounded=0;jumpStyle=none;orthogonalLoop=1;jettySize=auto;elbow=vertical;html=1;endArrow=none;endFill=0;sourcePerimeterSpacing=1;" parent="1" source="CpeaB846haHFIQsKbPVB-106" edge="1">
                    <mxGeometry relative="1" as="geometry">
                        <mxPoint x="1350" y="-1720" as="targetPoint"/>
                    </mxGeometry>
                </mxCell>
                <mxCell id="CpeaB846haHFIQsKbPVB-106" value="temperature" style="ellipse;whiteSpace=wrap;html=1;aspect=fixed;" parent="1" vertex="1">
                    <mxGeometry x="1330" y="-1790" width="40" height="40" as="geometry"/>
                </mxCell>
                <mxCell id="CpeaB846haHFIQsKbPVB-109" style="edgeStyle=elbowEdgeStyle;rounded=0;jumpStyle=none;orthogonalLoop=1;jettySize=auto;elbow=vertical;html=1;entryX=0.402;entryY=0;entryDx=0;entryDy=0;entryPerimeter=0;endArrow=none;endFill=0;sourcePerimeterSpacing=1;" parent="1" source="CpeaB846haHFIQsKbPVB-108" target="IPaBNMBHqaToawMMxi63-201" edge="1">
                    <mxGeometry relative="1" as="geometry"/>
                </mxCell>
                <mxCell id="CpeaB846haHFIQsKbPVB-108" value="cloud" style="ellipse;whiteSpace=wrap;html=1;aspect=fixed;" parent="1" vertex="1">
                    <mxGeometry x="1400" y="-1790" width="40" height="40" as="geometry"/>
                </mxCell>
                <mxCell id="CpeaB846haHFIQsKbPVB-113" style="edgeStyle=elbowEdgeStyle;rounded=0;jumpStyle=none;orthogonalLoop=1;jettySize=auto;elbow=vertical;html=1;endArrow=none;endFill=0;sourcePerimeterSpacing=1;" parent="1" source="CpeaB846haHFIQsKbPVB-112" edge="1">
                    <mxGeometry relative="1" as="geometry">
                        <mxPoint x="1480" y="-1720" as="targetPoint"/>
                    </mxGeometry>
                </mxCell>
                <mxCell id="CpeaB846haHFIQsKbPVB-112" value="precipitation" style="ellipse;whiteSpace=wrap;html=1;align=center;" parent="1" vertex="1">
                    <mxGeometry x="1430" y="-1820" width="100" height="40" as="geometry"/>
                </mxCell>
                <mxCell id="CpeaB846haHFIQsKbPVB-115" style="edgeStyle=elbowEdgeStyle;rounded=0;jumpStyle=none;orthogonalLoop=1;jettySize=auto;elbow=vertical;html=1;entryX=0.967;entryY=0;entryDx=0;entryDy=0;entryPerimeter=0;endArrow=none;endFill=0;sourcePerimeterSpacing=1;" parent="1" source="CpeaB846haHFIQsKbPVB-114" target="IPaBNMBHqaToawMMxi63-201" edge="1">
                    <mxGeometry relative="1" as="geometry"/>
                </mxCell>
                <mxCell id="CpeaB846haHFIQsKbPVB-114" value="wind direction" style="ellipse;whiteSpace=wrap;html=1;aspect=fixed;" parent="1" vertex="1">
                    <mxGeometry x="1530" y="-1800" width="40" height="40" as="geometry"/>
                </mxCell>
                <mxCell id="CpeaB846haHFIQsKbPVB-117" style="edgeStyle=elbowEdgeStyle;rounded=0;jumpStyle=none;orthogonalLoop=1;jettySize=auto;elbow=vertical;html=1;endArrow=none;endFill=0;sourcePerimeterSpacing=1;" parent="1" source="CpeaB846haHFIQsKbPVB-116" edge="1">
                    <mxGeometry relative="1" as="geometry">
                        <mxPoint x="1558" y="-1700" as="targetPoint"/>
                        <Array as="points">
                            <mxPoint x="1600" y="-1700"/>
                        </Array>
                    </mxGeometry>
                </mxCell>
                <mxCell id="CpeaB846haHFIQsKbPVB-116" value="wind-force" style="ellipse;whiteSpace=wrap;html=1;aspect=fixed;" parent="1" vertex="1">
                    <mxGeometry x="1580" y="-1800" width="40" height="40" as="geometry"/>
                </mxCell>
                <mxCell id="CpeaB846haHFIQsKbPVB-121" style="edgeStyle=elbowEdgeStyle;rounded=0;jumpStyle=none;orthogonalLoop=1;jettySize=auto;elbow=vertical;html=1;endArrow=none;endFill=0;sourcePerimeterSpacing=1;" parent="1" source="CpeaB846haHFIQsKbPVB-120" target="IPaBNMBHqaToawMMxi63-137" edge="1">
                    <mxGeometry relative="1" as="geometry">
                        <Array as="points">
                            <mxPoint x="1310" y="-1040"/>
                        </Array>
                    </mxGeometry>
                </mxCell>
                <mxCell id="CpeaB846haHFIQsKbPVB-120" value="date" style="ellipse;whiteSpace=wrap;html=1;align=center;" parent="1" vertex="1">
                    <mxGeometry x="1257.5" y="-1000" width="40" height="40" as="geometry"/>
                </mxCell>
                <mxCell id="CpeaB846haHFIQsKbPVB-126" value="" style="endArrow=oval;html=1;rounded=0;sourcePerimeterSpacing=1;elbow=vertical;jumpStyle=none;endFill=1;" parent="1" edge="1">
                    <mxGeometry relative="1" as="geometry">
                        <mxPoint x="1152.5" y="-1020" as="sourcePoint"/>
                        <mxPoint x="1312.5" y="-1020" as="targetPoint"/>
                    </mxGeometry>
                </mxCell>
                <mxCell id="CpeaB846haHFIQsKbPVB-144" style="edgeStyle=elbowEdgeStyle;rounded=0;jumpStyle=none;orthogonalLoop=1;jettySize=auto;elbow=vertical;html=1;entryX=0.074;entryY=-0.019;entryDx=0;entryDy=0;entryPerimeter=0;endArrow=none;endFill=0;sourcePerimeterSpacing=1;" parent="1" source="CpeaB846haHFIQsKbPVB-143" target="IPaBNMBHqaToawMMxi63-78" edge="1">
                    <mxGeometry relative="1" as="geometry"/>
                </mxCell>
                <mxCell id="CpeaB846haHFIQsKbPVB-143" value="Id" style="ellipse;whiteSpace=wrap;html=1;align=center;fontStyle=4;" parent="1" vertex="1">
                    <mxGeometry x="1068.72" y="-830" width="40" height="40" as="geometry"/>
                </mxCell>
                <mxCell id="CpeaB846haHFIQsKbPVB-145" value="" style="endArrow=oval;html=1;rounded=0;sourcePerimeterSpacing=1;elbow=vertical;jumpStyle=none;endFill=1;" parent="1" edge="1">
                    <mxGeometry relative="1" as="geometry">
                        <mxPoint x="1190" y="-320" as="sourcePoint"/>
                        <mxPoint x="1091.83" y="-111.81" as="targetPoint"/>
                        <Array as="points">
                            <mxPoint x="1280" y="-320"/>
                            <mxPoint x="1280" y="-112"/>
                        </Array>
                    </mxGeometry>
                </mxCell>
                <mxCell id="6" value="" style="group" parent="1" vertex="1" connectable="0">
                    <mxGeometry x="570" y="-750" width="80.06" height="40" as="geometry"/>
                </mxCell>
                <mxCell id="3" value="Id" style="ellipse;shape=doubleEllipse;margin=3;whiteSpace=wrap;html=1;align=center;" parent="6" vertex="1">
                    <mxGeometry width="40" height="40" as="geometry"/>
                </mxCell>
                <mxCell id="5" style="edgeStyle=orthogonalEdgeStyle;rounded=0;orthogonalLoop=1;jettySize=auto;html=1;endArrow=none;endFill=0;exitX=1;exitY=0.5;exitDx=0;exitDy=0;" parent="6" source="3" edge="1">
                    <mxGeometry relative="1" as="geometry">
                        <mxPoint x="80.75999999999999" y="19.159999999999968" as="sourcePoint"/>
                        <mxPoint x="80.06" y="20" as="targetPoint"/>
                    </mxGeometry>
                </mxCell>
                <mxCell id="9" value="" style="group;rotation=90;" parent="1" vertex="1" connectable="0">
                    <mxGeometry x="960" y="-2565" width="110" height="40" as="geometry"/>
                </mxCell>
                <mxCell id="7" value="name" style="ellipse;whiteSpace=wrap;html=1;align=center;rotation=0;" parent="9" vertex="1">
                    <mxGeometry x="35" y="-35" width="40" height="40" as="geometry"/>
                </mxCell>
                <mxCell id="8" style="edgeStyle=elbowEdgeStyle;rounded=0;jumpStyle=none;orthogonalLoop=1;jettySize=auto;elbow=vertical;html=1;endArrow=none;endFill=0;sourcePerimeterSpacing=1;" parent="9" source="7" edge="1">
                    <mxGeometry relative="1" as="geometry">
                        <mxPoint x="55" y="75" as="targetPoint"/>
                    </mxGeometry>
                </mxCell>
                <mxCell id="12" value="point_type" style="rounded=0;whiteSpace=wrap;html=1;" vertex="1" parent="1">
                    <mxGeometry x="1350" y="-2130" width="100" height="40" as="geometry"/>
                </mxCell>
                <mxCell id="15" style="edgeStyle=none;html=1;exitX=0;exitY=0.5;exitDx=0;exitDy=0;entryX=1;entryY=0.5;entryDx=0;entryDy=0;endArrow=none;endFill=0;" edge="1" parent="1" source="13" target="IPaBNMBHqaToawMMxi63-156">
                    <mxGeometry relative="1" as="geometry"/>
                </mxCell>
                <mxCell id="16" value="1-1" style="edgeLabel;html=1;align=center;verticalAlign=middle;resizable=0;points=[];" vertex="1" connectable="0" parent="15">
                    <mxGeometry x="0.3878" y="-1" relative="1" as="geometry">
                        <mxPoint as="offset"/>
                    </mxGeometry>
                </mxCell>
                <mxCell id="13" value="point_has_type" style="shape=rhombus;perimeter=rhombusPerimeter;whiteSpace=wrap;html=1;align=center;" vertex="1" parent="1">
                    <mxGeometry x="1143.78" y="-2125" width="131.22" height="90" as="geometry"/>
                </mxCell>
                <mxCell id="14" value="" style="endArrow=none;html=1;entryX=0;entryY=0.5;entryDx=0;entryDy=0;exitX=1;exitY=0.5;exitDx=0;exitDy=0;" edge="1" parent="1" source="13" target="12">
                    <mxGeometry width="50" height="50" relative="1" as="geometry">
                        <mxPoint x="1230" y="-2040" as="sourcePoint"/>
                        <mxPoint x="1280" y="-2090" as="targetPoint"/>
                    </mxGeometry>
                </mxCell>
                <mxCell id="17" value="0-n" style="edgeLabel;html=1;align=center;verticalAlign=middle;resizable=0;points=[];" vertex="1" connectable="0" parent="14">
                    <mxGeometry x="-0.2138" y="-1" relative="1" as="geometry">
                        <mxPoint as="offset"/>
                    </mxGeometry>
                </mxCell>
            </root>
        </mxGraphModel>
    </diagram>
</mxfile>